<svg width="718" height="126" viewBox="0 0 718 126" fill="none" xmlns="http://www.w3.org/2000/svg">
<path d="M22.284 93V38.472H0.779996V25.8H59.34V38.472H37.836V93H22.284ZM65.9647 93V40.5H88.6897C93.3897 40.5 97.4397 41.275 100.84 42.825C104.24 44.325 106.865 46.5 108.715 49.35C110.565 52.2 111.49 55.6 111.49 59.55C111.49 63.45 110.565 66.825 108.715 69.675C106.865 72.475 104.24 74.625 100.84 76.125C97.4397 77.625 93.3897 78.375 88.6897 78.375H72.7147L78.1147 73.05V93H65.9647ZM99.3397 93L86.2147 73.95H99.1897L112.465 93H99.3397ZM78.1147 74.4L72.7147 68.7H88.0147C91.7647 68.7 94.5647 67.9 96.4147 66.3C98.2647 64.65 99.1897 62.4 99.1897 59.55C99.1897 56.65 98.2647 54.4 96.4147 52.8C94.5647 51.2 91.7647 50.4 88.0147 50.4H72.7147L78.1147 44.625V74.4ZM132.291 61.65H157.566V71.1H132.291V61.65ZM133.191 83.25H161.766V93H121.116V40.5H160.791V50.25H133.191V83.25ZM171.433 93V40.5H181.483L212.459 78.3H207.583V40.5H219.583V93H209.608L178.558 55.2H183.433V93H171.433ZM242.88 93V50.4H226.08V40.5H271.83V50.4H255.03V93H242.88ZM278.367 93V40.5H290.517V93H278.367ZM302.976 93V40.5H313.026L344.001 78.3H339.126V40.5H351.126V93H341.151L310.101 55.2H314.976V93H302.976ZM389.048 93.9C384.898 93.9 381.048 93.225 377.498 91.875C373.998 90.525 370.948 88.625 368.348 86.175C365.798 83.725 363.798 80.85 362.348 77.55C360.948 74.25 360.248 70.65 360.248 66.75C360.248 62.85 360.948 59.25 362.348 55.95C363.798 52.65 365.823 49.775 368.423 47.325C371.023 44.875 374.073 42.975 377.573 41.625C381.073 40.275 384.873 39.6 388.973 39.6C393.123 39.6 396.923 40.275 400.373 41.625C403.873 42.975 406.898 44.875 409.448 47.325C412.048 49.775 414.073 52.65 415.523 55.95C416.973 59.2 417.698 62.8 417.698 66.75C417.698 70.65 416.973 74.275 415.523 77.625C414.073 80.925 412.048 83.8 409.448 86.25C406.898 88.65 403.873 90.525 400.373 91.875C396.923 93.225 393.148 93.9 389.048 93.9ZM388.973 83.55C391.323 83.55 393.473 83.15 395.423 82.35C397.423 81.55 399.173 80.4 400.673 78.9C402.173 77.4 403.323 75.625 404.123 73.575C404.973 71.525 405.398 69.25 405.398 66.75C405.398 64.25 404.973 61.975 404.123 59.925C403.323 57.875 402.173 56.1 400.673 54.6C399.223 53.1 397.498 51.95 395.498 51.15C393.498 50.35 391.323 49.95 388.973 49.95C386.623 49.95 384.448 50.35 382.448 51.15C380.498 51.95 378.773 53.1 377.273 54.6C375.773 56.1 374.598 57.875 373.748 59.925C372.948 61.975 372.548 64.25 372.548 66.75C372.548 69.2 372.948 71.475 373.748 73.575C374.598 75.625 375.748 77.4 377.198 78.9C378.698 80.4 380.448 81.55 382.448 82.35C384.448 83.15 386.623 83.55 388.973 83.55ZM477.84 94.152C472.464 94.152 467.312 93.448 462.384 92.04C457.456 90.568 453.488 88.68 450.48 86.376L455.76 74.664C458.64 76.712 462.032 78.408 465.936 79.752C469.904 81.032 473.904 81.672 477.936 81.672C481.008 81.672 483.472 81.384 485.328 80.808C487.248 80.168 488.656 79.304 489.552 78.216C490.448 77.128 490.896 75.88 490.896 74.472C490.896 72.68 490.192 71.272 488.784 70.248C487.376 69.16 485.52 68.296 483.216 67.656C480.912 66.952 478.352 66.312 475.536 65.736C472.784 65.096 470 64.328 467.184 63.432C464.432 62.536 461.904 61.384 459.6 59.976C457.296 58.568 455.408 56.712 453.936 54.408C452.528 52.104 451.824 49.16 451.824 45.576C451.824 41.736 452.848 38.248 454.896 35.112C457.008 31.912 460.144 29.384 464.304 27.528C468.528 25.608 473.808 24.648 480.144 24.648C484.368 24.648 488.528 25.16 492.624 26.184C496.72 27.144 500.336 28.616 503.472 30.6L498.672 42.408C495.536 40.616 492.4 39.304 489.264 38.472C486.128 37.576 483.056 37.128 480.048 37.128C477.04 37.128 474.576 37.48 472.656 38.184C470.736 38.888 469.36 39.816 468.528 40.968C467.696 42.056 467.28 43.336 467.28 44.808C467.28 46.536 467.984 47.944 469.392 49.032C470.8 50.056 472.656 50.888 474.96 51.528C477.264 52.168 479.792 52.808 482.544 53.448C485.36 54.088 488.144 54.824 490.896 55.656C493.712 56.488 496.272 57.608 498.576 59.016C500.88 60.424 502.736 62.28 504.144 64.584C505.616 66.888 506.352 69.8 506.352 73.32C506.352 77.096 505.296 80.552 503.184 83.688C501.072 86.824 497.904 89.352 493.68 91.272C489.52 93.192 484.24 94.152 477.84 94.152ZM526.11 93V50.4H509.31V40.5H555.06V50.4H538.26V93H526.11ZM552.061 93L575.461 40.5H587.461L610.936 93H598.186L578.986 46.65H583.786L564.511 93H552.061ZM563.761 81.75L566.986 72.525H593.986L597.286 81.75H563.761ZM641 93.9C636.85 93.9 633.025 93.25 629.525 91.95C626.075 90.6 623.05 88.7 620.45 86.25C617.9 83.8 615.9 80.925 614.45 77.625C613.05 74.325 612.35 70.7 612.35 66.75C612.35 62.8 613.05 59.175 614.45 55.875C615.9 52.575 617.925 49.7 620.525 47.25C623.125 44.8 626.175 42.925 629.675 41.625C633.175 40.275 637.025 39.6 641.225 39.6C645.875 39.6 650.05 40.375 653.75 41.925C657.5 43.475 660.65 45.725 663.2 48.675L655.4 55.875C653.5 53.875 651.425 52.4 649.175 51.45C646.925 50.45 644.475 49.95 641.825 49.95C639.275 49.95 636.95 50.35 634.85 51.15C632.75 51.95 630.925 53.1 629.375 54.6C627.875 56.1 626.7 57.875 625.85 59.925C625.05 61.975 624.65 64.25 624.65 66.75C624.65 69.2 625.05 71.45 625.85 73.5C626.7 75.55 627.875 77.35 629.375 78.9C630.925 80.4 632.725 81.55 634.775 82.35C636.875 83.15 639.175 83.55 641.675 83.55C644.075 83.55 646.4 83.175 648.65 82.425C650.95 81.625 653.175 80.3 655.325 78.45L662.225 87.225C659.375 89.375 656.05 91.025 652.25 92.175C648.5 93.325 644.75 93.9 641 93.9ZM651.125 85.65V65.925H662.225V87.225L651.125 85.65ZM684.687 61.65H709.962V71.1H684.687V61.65ZM685.587 83.25H714.162V93H673.512V40.5H713.187V50.25H685.587V83.25Z" fill="white"/>
<line x1="-0.000366211" y1="120.5" x2="718.007" y2="120.5" stroke="white" stroke-width="10"/>
</svg>
